<?xml version="1.0" encoding="UTF-8"?>
<svg version="1.1" xmlns="http://www.w3.org/2000/svg" width="500" height="500" viewBox="0 0 500 500" preserveAspectRatio="xMidYMid meet">
<path d="M0 0 C165 0 330 0 500 0 C500 165 500 330 500 500 C335 500 170 500 0 500 C0 335 0 170 0 0 Z " fill="#000000" transform="translate(0,0)"/>
<path d="M0 0 C0.67691895 0.08507813 1.35383789 0.17015625 2.05126953 0.2578125 C24.74029926 3.11498737 45.4278737 10.5394681 64 24 C64.67804688 24.46664062 65.35609375 24.93328125 66.0546875 25.4140625 C72.35688039 29.88574293 77.91127362 35.28349966 83.50927734 40.58837891 C84.7768386 41.78868012 86.05348748 42.97937278 87.33203125 44.16796875 C113.24119606 68.95287 130.37885144 110.93257177 131.23828125 146.49609375 C131.28531827 152.00108985 131.19816842 157.49853969 131 163 C131.89460938 162.28714844 132.78921875 161.57429687 133.7109375 160.83984375 C155.27545731 143.71825015 176.52518684 129.90535775 205 132 C222.58585004 135.0764844 234.66882868 152.59078767 244.67578125 166.0546875 C248.50940177 170.91275452 252.48960194 175.08473378 258 178 C261.72620951 178.18546131 261.72620951 178.18546131 265.5625 177.75 C272.41096283 177.52126941 272.41096283 177.52126941 275.0859375 179.6953125 C276.79399585 182.44992683 278 184.72452252 278 188 C275.83544922 189.55297852 275.83544922 189.55297852 272.8046875 191.37890625 C271.70261963 192.04865479 270.60055176 192.71840332 269.46508789 193.40844727 C268.26839193 194.12646484 267.07169596 194.84448242 265.875 195.5625 C264.06918812 196.6570081 262.26503563 197.75421389 260.46101379 198.85166931 C259.2728427 199.57434975 258.08419428 200.29624601 256.89506531 201.01734924 C252.57681641 203.63807724 248.30003029 206.31356203 244.0625 209.0625 C242.50015625 210.06796875 242.50015625 210.06796875 240.90625 211.09375 C238.91080239 212.40259198 236.93228122 213.73749648 234.96875 215.09375 C227.96315789 219.83947368 227.96315789 219.83947368 223.25 220.625 C219.49448067 219.90278475 216.33675117 218.81877422 213 217 C212.00033203 216.46632812 212.00033203 216.46632812 210.98046875 215.921875 C201.57147295 210.29343067 194.50387395 201.28083532 187.8125 192.75 C178.07612323 180.22053906 178.07612323 180.22053906 164 174 C156.26281683 173.35523474 151.72824824 175.51450117 145.375 179.75 C135.16032134 189.42706399 130.6175247 201.78878797 129.78125 215.6171875 C129.21347904 239.51088202 135.57171939 263.63010628 148 284 C148.67675781 285.12664062 149.35351562 286.25328125 150.05078125 287.4140625 C159.1090134 301.43641057 170.85511521 312.86867075 186 320 C187.1653125 320.55300781 188.330625 321.10601562 189.53125 321.67578125 C195.18252695 323.83319441 201.49430745 324.29189016 207.2578125 322.16796875 C209.82848452 320.73204944 211.92080061 319.07919939 214 317 C214.36894582 314.96939341 214.36894582 314.96939341 214.4140625 312.6484375 C214.45273437 311.79765625 214.49140625 310.946875 214.53125 310.0703125 C214.5621875 309.18085938 214.593125 308.29140625 214.625 307.375 C214.66367187 306.4778125 214.70234375 305.580625 214.7421875 304.65625 C214.83659357 302.4377073 214.92216748 300.21917597 215 298 C214.14019531 297.93941406 213.28039062 297.87882812 212.39453125 297.81640625 C211.21246094 297.73261719 210.03039062 297.64882813 208.8125 297.5625 C206.89824219 297.43294922 206.89824219 297.43294922 204.9453125 297.30078125 C202.45736951 297.11110639 199.97171647 296.88434673 197.4921875 296.60546875 C189.13637792 295.70667599 183.06795668 296.28802888 176 301 C172.83593025 300.89453101 171.67204602 299.73034895 169.1875 297.6875 C167 295 167 295 167.16015625 293.046875 C168.15740259 290.61637695 169.34117024 289.35928976 171.25 287.5625 C171.88421875 286.95664062 172.5184375 286.35078125 173.171875 285.7265625 C174.07679688 284.87191406 174.07679688 284.87191406 175 284 C175.825 283.154375 176.65 282.30875 177.5 281.4375 C179.41398891 279.57136081 181.32109786 277.88539243 183.375 276.1875 C186.79951247 273.31629304 189.6024096 270.09517514 192.421875 266.63671875 C194 265 194 265 197 264 C198.04974648 262.16180311 198.04974648 262.16180311 199 260 C201.197587 256.50934007 203.45820843 254.14838287 207 252 C218.24585967 249.77990079 230.45387888 252.85546967 241.59790039 254.55981445 C255.49682221 256.63331109 270.1712943 258.81693403 282.5625 250.8125 C283.366875 250.214375 284.17125 249.61625 285 249 C289.28079185 250.58547846 291.20711718 253.54479174 294 257 C293.27296875 257.77601563 292.5459375 258.55203125 291.796875 259.3515625 C285.7092409 265.88146934 279.76622563 272.50317603 274.01074219 279.32861328 C271.99153083 281.7159028 270.08818136 283.92827916 267.65625 285.90625 C265.15653619 289.06626557 265.65463991 292.12499552 266 295.9375 C266.05542969 296.68515625 266.11085938 297.4328125 266.16796875 298.203125 C267.1105432 309.43152007 267.1105432 309.43152007 272 319 C277.54423106 319.3696154 280.32892784 319.20302091 285 316 C285.99 316 286.98 316 288 316 C289.60546875 317.75 289.60546875 317.75 291.1875 320 C291.71730469 320.7425 292.24710937 321.485 292.79296875 322.25 C293.19128906 322.8275 293.58960938 323.405 294 324 C292.5292822 327.60127117 290.63253476 329.34444947 287.5625 331.6875 C283.80958602 334.59681948 280.09992836 337.53970702 276.4375 340.5625 C273.22534767 343.2004128 269.99187392 345.79138508 266.6875 348.3125 C262.0127044 351.90914454 257.56973527 355.76308817 253.13549805 359.6496582 C249.24790318 363.02981261 245.23174322 366.06039212 241 369 C231.56351416 364.37804775 225.55400262 356.36779733 221 347 C220.3359375 344.19921875 220.3359375 344.19921875 220 342 C216.83181679 344.30413324 214.33743694 346.73573984 211.875 349.75 C202.9474934 360.1043651 189.69175302 367.51535208 176 369 C156.46855484 370.168548 138.52140932 365.26992938 123.48828125 352.30859375 C122.66714844 351.54675781 121.84601563 350.78492188 121 350 C120.24855713 349.30994873 120.24855713 349.30994873 119.48193359 348.60595703 C96.32298104 327.12952219 84.84588524 299.68988333 79 269 C78.36835938 269.52207031 77.73671875 270.04414063 77.0859375 270.58203125 C71.87562412 274.86890292 66.62934072 279.09654869 61.3125 283.25 C54.70506634 288.4144098 48.19563138 293.6939552 41.6953125 298.9921875 C36.40638261 303.30238303 31.07098799 307.55379922 25.734375 311.8046875 C15.88398929 319.66542576 6.10688499 327.61811678 -3.625 335.625 C-8.29707748 339.45526172 -13.04171444 343.18640726 -17.80029297 346.90795898 C-21.48428664 349.79414188 -25.13202065 352.71850847 -28.75 355.6875 C-29.6265625 356.40035156 -30.503125 357.11320312 -31.40625 357.84765625 C-33.18389262 359.32277836 -34.93297054 360.8328134 -36.65625 362.37109375 C-37.94015625 363.48677734 -37.94015625 363.48677734 -39.25 364.625 C-39.99765625 365.29789062 -40.7453125 365.97078125 -41.515625 366.6640625 C-45.09671849 368.58974485 -47.0999695 367.98844888 -51 367 C-53.65709416 365.97916403 -56.16387298 364.75094862 -58.6875 363.4375 C-59.38375488 363.08107422 -60.08000977 362.72464844 -60.79736328 362.35742188 C-104.94871999 339.30431615 -142.02500143 290.05968391 -157 243 C-159.58523226 234.72989474 -161.88570613 226.40220382 -164 218 C-164.19787109 217.23413574 -164.39574219 216.46827148 -164.59960938 215.67919922 C-167.31618263 204.711425 -167.30230786 193.54820818 -167.375 182.3125 C-167.38312714 181.56905334 -167.39125427 180.82560669 -167.39962769 180.05963135 C-167.64706141 149.82264615 -156.5560117 121.86110383 -135.7890625 99.6796875 C-131.64356288 95.69675649 -127.16318219 92.23522658 -122.58984375 88.76171875 C-119.04056348 86.0611168 -115.63609726 83.21372059 -112.25 80.3125 C-107.71962099 76.4417138 -103.13023912 72.66313458 -98.4609375 68.9609375 C-95.78755705 66.83072006 -93.14231033 64.66861884 -90.5 62.5 C-87.12064277 59.72864428 -83.72967128 56.97457877 -80.3125 54.25 C-73.16777798 48.55015011 -66.08626775 42.77222122 -59 37 C-57.99324219 36.18015625 -56.98648438 35.3603125 -55.94921875 34.515625 C-51.25498136 30.68414904 -46.58607185 26.82420415 -41.9375 22.9375 C-37.53938363 19.26863429 -33.13459489 15.6153072 -28.6171875 12.09375 C-26.664716 10.5317728 -24.80573712 8.94577944 -22.9453125 7.28125 C-15.4601298 0.76632673 -10.07468549 -1.50071985 0 0 Z " fill="#FDFDFD" transform="translate(184,36)"/>
<path d="M0 0 C20.68223418 0.80419455 39.12906064 7.86919162 55.10546875 21.08984375 C56.08386719 21.86908203 56.08386719 21.86908203 57.08203125 22.6640625 C65.64256672 29.75377238 71.97397974 38.89989229 78.10546875 48.08984375 C78.59660156 48.81042969 79.08773437 49.53101563 79.59375 50.2734375 C101.43499513 84.24216644 107.40347677 132.62542282 99.65771484 171.58544922 C96.97995363 183.72889508 93.30883879 195.26694283 87.10546875 206.08984375 C69.30314449 207.6070873 53.05235741 199.85063957 39.60498047 188.70361328 C36.71327268 186.22801219 33.89786703 183.67648637 31.10546875 181.08984375 C29.85443359 179.94515625 29.85443359 179.94515625 28.578125 178.77734375 C18.65328994 169.28857349 10.88382983 157.97072292 4.10546875 146.08984375 C3.74598145 145.46658203 3.38649414 144.84332031 3.01611328 144.20117188 C-6.45149759 127.62361115 -13.32173753 109.62029273 -17.89453125 91.08984375 C-18.05824219 90.44176758 -18.22195312 89.79369141 -18.390625 89.12597656 C-24.60869771 63.2644469 -23.81436698 32.21957079 -9.89453125 9.08984375 C-3.86988785 0.12011798 -3.86988785 0.12011798 0 0 Z " fill="#010101" transform="translate(122.89453125,110.91015625)"/>
<path d="M0 0 C2.91712889 2.05633676 4.71046958 4.53803057 6.90625 7.34375 C4.26625 10.31375 1.62625 13.28375 -1.09375 16.34375 C-1.75375 15.68375 -2.41375 15.02375 -3.09375 14.34375 C-3.75375 14.01375 -4.41375 13.68375 -5.09375 13.34375 C-4.76375 12.68375 -4.43375 12.02375 -4.09375 11.34375 C-4.898125 10.745625 -5.7025 10.1475 -6.53125 9.53125 C-9.09375 7.34375 -9.09375 7.34375 -10.09375 4.34375 C-8.8574332 3.44952086 -7.60403438 2.57887109 -6.34375 1.71875 C-5.64765625 1.23148437 -4.9515625 0.74421875 -4.234375 0.2421875 C-2.09375 -0.65625 -2.09375 -0.65625 0 0 Z " fill="#EEEEEE" transform="translate(471.09375,285.65625)"/>
<path d="M0 0 C4.57478694 2.45539412 8.07347818 5.64855962 11.8125 9.1875 C12.40998047 9.74630859 13.00746094 10.30511719 13.62304688 10.88085938 C15.08574725 12.24994693 16.54339162 13.62443279 18 15 C16.140625 16.0546875 16.140625 16.0546875 14 17 C11.75 16.125 11.75 16.125 10 15 C10.66 14.67 11.32 14.34 12 14 C7.38987758 11.04952165 4.63470383 9.4502728 -1 10 C-1 8.68 -1 7.36 -1 6 C-0.34 5.67 0.32 5.34 1 5 C0.67 3.35 0.34 1.7 0 0 Z M10 17 C14 18 14 18 14 18 Z " fill="#EEEEEE" transform="translate(250,62)"/>
<path d="M0 0 C-0.639375 0.103125 -1.27875 0.20625 -1.9375 0.3125 C-2.618125 0.539375 -3.29875 0.76625 -4 1 C-4.33 1.99 -4.66 2.98 -5 4 C-6.98636298 4.70626239 -8.98848259 5.36893571 -11 6 C-14.07486501 7.91140257 -14.83135389 8.49406168 -16 12 C-16.66 12 -17.32 12 -18 12 C-17.67 12.99 -17.34 13.98 -17 15 C-19 18 -19 18 -21 20 C-21.33 20.66 -21.66 21.32 -22 22 C-23.32 21.34 -24.64 20.68 -26 20 C-22.1303936 11.18589653 -16.30056836 5.7115607 -8 1 C-5.07175348 0.02391783 -3.04386724 -0.08226668 0 0 Z " fill="#090909" transform="translate(345,209)"/>
<path d="M0 0 C2.5625 2.25 2.5625 2.25 5 5 C4.8125 7.3125 4.8125 7.3125 4 9 C6.6666419 10.33332095 8.16680303 9.67102033 11 9 C4.39187228 14.01306241 4.39187228 14.01306241 2.125 13.9375 C-1.02828013 12.546347 -2.83978603 10.65397716 -5 8 C-5.09328009 4.92175717 -4.0196554 4.02144226 -1.9375 1.75 C-1.298125 1.1725 -0.65875 0.595 0 0 Z " fill="#E9E9E9" transform="translate(356,323)"/>
<path d="M0 0 C-0.5259375 0.928125 -0.5259375 0.928125 -1.0625 1.875 C-1.371875 2.57625 -1.68125 3.2775 -2 4 C-1.67 4.66 -1.34 5.32 -1 6 C-1.66 6.66 -2.32 7.32 -3 8 C-3.33 7.67 -3.66 7.34 -4 7 C-4.66 7.66 -5.32 8.32 -6 9 C-6.99 9.495 -6.99 9.495 -8 10 C-8.391875 10.61875 -8.78375 11.2375 -9.1875 11.875 C-11.68503977 14.80315008 -14.44527656 15.62800148 -18 17 C-18.763125 17.4125 -19.52625 17.825 -20.3125 18.25 C-20.869375 18.4975 -21.42625 18.745 -22 19 C-22.66 18.67 -23.32 18.34 -24 18 C-23.5467334 17.63237549 -23.0934668 17.26475098 -22.62646484 16.88598633 C-20.54231043 15.19523399 -18.45865234 13.50387104 -16.375 11.8125 C-15.66214844 11.23435547 -14.94929688 10.65621094 -14.21484375 10.06054688 C-13.51230469 9.49013672 -12.80976562 8.91972656 -12.0859375 8.33203125 C-11.04711426 7.49019287 -11.04711426 7.49019287 -9.98730469 6.63134766 C-8.1681159 5.13800374 -6.3844106 3.61050275 -4.6015625 2.07421875 C-2 0 -2 0 0 0 Z " fill="#EAEAEA" transform="translate(80,111)"/>
<path d="M0 0 C0.556875 0.226875 1.11375 0.45375 1.6875 0.6875 C1.3575 2.3375 1.0275 3.9875 0.6875 5.6875 C1.3475 5.6875 2.0075 5.6875 2.6875 5.6875 C2.9375 8 2.9375 8 2.6875 10.6875 C1.3675 11.6775 0.0475 12.6675 -1.3125 13.6875 C-3.2925 10.0575 -5.2725 6.4275 -7.3125 2.6875 C-2.3125 -0.3125 -2.3125 -0.3125 0 0 Z " fill="#0D0D0D" transform="translate(293.3125,96.3125)"/>
<path d="M0 0 C0.33 0.66 0.66 1.32 1 2 C-2.67088608 7.69620253 -2.67088608 7.69620253 -4.625 9.5 C-6.64976489 11.70883443 -7.17058226 14.15628202 -8 17 C-8.33 17.99 -8.66 18.98 -9 20 C-11.0625 20.6875 -11.0625 20.6875 -13 21 C-11.97400329 14.44569163 -9.11046522 6.99812336 -4.26953125 2.33203125 C-2.625 1.25 -2.625 1.25 0 0 Z " fill="#0E0E0E" transform="translate(119,116)"/>
<path d="M0 0 C2.97 0.495 2.97 0.495 6 1 C3.17477391 5.67248931 0.32239956 8.65996398 -4 12 C-5.28571429 4.57142857 -5.28571429 4.57142857 -4 1 C-2.02 1.495 -2.02 1.495 0 2 C0 1.34 0 0.68 0 0 Z " fill="#EEEEEE" transform="translate(453,312)"/>
<path d="M0 0 C0 3.10551666 -0.5393715 4.35261084 -2 7 C-2.66 6.67 -3.32 6.34 -4 6 C-4.061875 6.61875 -4.12375 7.2375 -4.1875 7.875 C-5 10 -5 10 -7.5625 11.25 C-8.366875 11.4975 -9.17125 11.745 -10 12 C-10.99 10.68 -11.98 9.36 -13 8 C-8.71 5.36 -4.42 2.72 0 0 Z " fill="#151515" transform="translate(441,236)"/>
<path d="M0 0 C1.32 0.66 2.64 1.32 4 2 C1.36 6.29 -1.28 10.58 -4 15 C-4.66 14.67 -5.32 14.34 -6 14 C-5.67 11.03 -5.34 8.06 -5 5 C-4.01 5.33 -3.02 5.66 -2 6 C-1.34 4.02 -0.68 2.04 0 0 Z " fill="#0F0F0F" transform="translate(31,152)"/>
<path d="M0 0 C0.66 0.33 1.32 0.66 2 1 C2.625 3.5625 2.625 3.5625 3 6 C-0.76070992 9.22346565 -3.11788654 9 -8 9 C-6.4169423 4.7257442 -3.49431596 2.73468206 0 0 Z " fill="#131313" transform="translate(205,350)"/>
<path d="M0 0 C0.33 0.66 0.66 1.32 1 2 C1.66 2.33 2.32 2.66 3 3 C1.07254909 4.70034041 -0.86541739 6.38490979 -2.8125 8.0625 C-3.63331055 8.79049805 -3.63331055 8.79049805 -4.47070312 9.53320312 C-5.91610309 10.76836309 -7.45427799 11.89295679 -9 13 C-9.99 12.67 -10.98 12.34 -12 12 C-11.25 9.5625 -11.25 9.5625 -10 7 C-8.67696283 6.6278958 -7.34262065 6.29369827 -6 6 C-4.71563266 4.0162233 -4.71563266 4.0162233 -4 2 C-2.68 2 -1.36 2 0 2 C0 1.34 0 0.68 0 0 Z " fill="#E5E5E5" transform="translate(164,379)"/>
<path d="M0 0 C0 3.59857954 -0.95830515 5.09451118 -3 8 C-3.66 8 -4.32 8 -5 8 C-5.33 10.31 -5.66 12.62 -6 15 C-6.99 15.33 -7.98 15.66 -9 16 C-9.66 16.99 -10.32 17.98 -11 19 C-11.4375 15.9375 -11.4375 15.9375 -11 12 C-9.44019288 9.96752405 -7.72843253 8.3556199 -5.82421875 6.64453125 C-3.59613186 4.6359133 -1.80818357 2.38680231 0 0 Z " fill="#1C1C1C" transform="translate(460,312)"/>
<path d="M0 0 C0.66 1.32 1.32 2.64 2 4 C1.4225 4.2475 0.845 4.495 0.25 4.75 C-2.38704101 6.21502278 -4.07358864 7.67502077 -6 10 C-6.79681318 12.64184541 -6.79681318 12.64184541 -7 15 C-8.32 15 -9.64 15 -11 15 C-11.66 15.99 -12.32 16.98 -13 18 C-13.33 17.34 -13.66 16.68 -14 16 C-9.33333333 10.66666667 -4.66666667 5.33333333 0 0 Z " fill="#191919" transform="translate(477,293)"/>
<path d="M0 0 C0.66 0.33 1.32 0.66 2 1 C1.195625 1.886875 0.39125 2.77375 -0.4375 3.6875 C-2.7039159 6.38287032 -3.68417366 8.42063478 -4 12 C-6.97 11.505 -6.97 11.505 -10 11 C-10 10.01 -10 9.02 -10 8 C-7.8125 5.95703125 -7.8125 5.95703125 -5 3.8125 C-4.071875 3.09707031 -3.14375 2.38164063 -2.1875 1.64453125 C-1.1046875 0.83048828 -1.1046875 0.83048828 0 0 Z " fill="#E6E6E6" transform="translate(104,90)"/>
<path d="M0 0 C3.91939465 3.80411834 7.49102731 7.81576108 11 12 C10.01 12 9.02 12 8 12 C6.32900023 12.31088368 4.66128463 12.64080332 3 13 C3 11.68 3 10.36 3 9 C2.55505645 7.40032201 2.05261616 5.81574577 1.5 4.25 C1.08234375 3.05117188 1.08234375 3.05117188 0.65625 1.828125 C0.4396875 1.22484375 0.223125 0.6215625 0 0 Z " fill="#0D0D0D" transform="translate(78,362)"/>
<path d="M0 0 C2.97 0 5.94 0 9 0 C9.33 1.32 9.66 2.64 10 4 C10.66 4 11.32 4 12 4 C12 4.66 12 5.32 12 6 C11.34 6 10.68 6 10 6 C10 6.66 10 7.32 10 8 C6.22272911 6.18690997 2.62730178 4.0926741 -1 2 C-0.67 1.34 -0.34 0.68 0 0 Z " fill="#E5E5E5" transform="translate(163,120)"/>
<path d="M0 0 C1 4 1 4 2 8 C-0.76264289 8.59732819 -3.16032769 9 -6 9 C-6.99 8.34 -7.98 7.68 -9 7 C-6.03 4.69 -3.06 2.38 0 0 Z " fill="#E7E7E7" transform="translate(118,79)"/>
<path d="M0 0 C0.9075 0.185625 1.815 0.37125 2.75 0.5625 C5.68314324 0.95734621 7.2644657 0.94691572 10 0 C10.33 1.32 10.66 2.64 11 4 C11.99 4 12.98 4 14 4 C13.34 5.32 12.68 6.64 12 8 C9.99743426 6.85865673 7.99800203 5.71181367 6 4.5625 C4.88625 3.92441406 3.7725 3.28632813 2.625 2.62890625 C1.75875 2.09136719 0.8925 1.55382812 0 1 C0 0.67 0 0.34 0 0 Z " fill="#EAEAEA" transform="translate(114,392)"/>
<path d="M0 0 C-2.97 2.64 -5.94 5.28 -9 8 C-11 5 -11 5 -10.5 2.4375 C-9 0 -9 0 -6.0625 -1.4375 C-3 -2 -3 -2 0 0 Z " fill="#141414" transform="translate(115,82)"/>
<path d="M0 0 C0.66 0.33 1.32 0.66 2 1 C1.195625 1.763125 0.39125 2.52625 -0.4375 3.3125 C-3.16799024 5.79430898 -3.16799024 5.79430898 -4 9 C-4.99 9.33 -5.98 9.66 -7 10 C-6.01 10.66 -5.02 11.32 -4 12 C-8.19589427 13.16552619 -8.82091936 13.08954032 -13 11 C-8.71 7.37 -4.42 3.74 0 0 Z " fill="#1A1A1A" transform="translate(240,322)"/>
<path d="M0 0 C0.99 0.66 1.98 1.32 3 2 C1.56771184 3.31818554 0.12897516 4.62936704 -1.3125 5.9375 C-2.11300781 6.66839844 -2.91351563 7.39929688 -3.73828125 8.15234375 C-6 10 -6 10 -9 11 C-9.66 10.34 -10.32 9.68 -11 9 C-9.824375 8.38125 -9.824375 8.38125 -8.625 7.75 C-5.83109683 5.88739789 -5.40317618 4.89989744 -4 2 C-1.875 0.75 -1.875 0.75 0 0 Z " fill="#E3E3E3" transform="translate(433,394)"/>
<path d="M0 0 C2 2 2 2 2.9375 4.0625 C3.90403542 6.34565884 3.90403542 6.34565884 7 7 C7.875 8.6875 7.875 8.6875 8 11 C6.5625 14.25 6.5625 14.25 5 17 C3.54851359 14.2232434 2.38091317 11.46693581 1.375 8.5 C0.98441406 7.37078125 0.98441406 7.37078125 0.5859375 6.21875 C0 4 0 4 0 0 Z " fill="#EAEAEA" transform="translate(23,262)"/>
<path d="M0 0 C0.66 0.99 1.32 1.98 2 3 C0.576875 3.8971875 0.576875 3.8971875 -0.875 4.8125 C-4.13964197 6.81562526 -4.13964197 6.81562526 -6 10 C-6.66 10 -7.32 10 -8 10 C-9.37310707 11.29233607 -10.71034824 12.62437146 -12 14 C-12.66 13.34 -13.32 12.68 -14 12 C-4.58997722 3.55353075 -4.58997722 3.55353075 0 0 Z " fill="#E0E0E0" transform="translate(153,50)"/>
<path d="M0 0 C0.66 0.33 1.32 0.66 2 1 C1.67 1.66 1.34 2.32 1 3 C1.39938767 5.09821215 1.39938767 5.09821215 2 7 C1.2575 6.95875 0.515 6.9175 -0.25 6.875 C-3.15160379 7.00689108 -4.49645245 7.62708683 -7 9 C-8.3242287 9.36784131 -9.65613912 9.71202981 -11 10 C-7.50640535 6.40365256 -3.88901869 3.16548033 0 0 Z " fill="#151515" transform="translate(194,359)"/>
<path d="M0 0 C-0.639375 0.103125 -1.27875 0.20625 -1.9375 0.3125 C-2.618125 0.539375 -3.29875 0.76625 -4 1 C-4.33 1.99 -4.66 2.98 -5 4 C-5.886875 4.28875 -6.77375 4.5775 -7.6875 4.875 C-11.75285841 6.25568776 -13.83748703 8.13867874 -17 11 C-17.66 10.34 -18.32 9.68 -19 9 C-17.23268551 7.6827656 -15.46102239 6.37136412 -13.6875 5.0625 C-12.70136719 4.33160156 -11.71523438 3.60070312 -10.69921875 2.84765625 C-6.98573263 0.30571858 -4.40277167 -0.11899383 0 0 Z " fill="#252525" transform="translate(345,209)"/>
<path d="M0 0 C0.99 0.66 1.98 1.32 3 2 C0.03 4.31 -2.94 6.62 -6 9 C-7.32 8.34 -8.64 7.68 -10 7 C-9.01 6.01 -8.02 5.02 -7 4 C-7.33 3.34 -7.66 2.68 -8 2 C-7.05125 2.04125 -6.1025 2.0825 -5.125 2.125 C-1.89755144 2.34973818 -1.89755144 2.34973818 0 0 Z " fill="#141414" transform="translate(330,184)"/>
<path d="M0 0 C4 0 4 0 7 1 C6.6875 3.375 6.6875 3.375 6 6 C5.01 6.66 4.02 7.32 3 8 C0.9375 6.25 0.9375 6.25 -1 4 C-0.75 1.75 -0.75 1.75 0 0 Z " fill="#0F0F0F" transform="translate(417,184)"/>
<path d="M0 0 C2.62187494 1.04874998 3.79371361 1.64931313 5.25 4.125 C5.4975 4.74375 5.745 5.3625 6 6 C5.01 7.485 5.01 7.485 4 9 C1 8 1 8 -1 7 C-1.04254356 5.00045254 -1.04080783 2.99958364 -1 1 C-0.67 0.67 -0.34 0.34 0 0 Z " fill="#111111" transform="translate(90,375)"/>
<path d="M0 0 C1.32 0.33 2.64 0.66 4 1 C5.125 4.75 5.125 4.75 4 7 C4.66 7 5.32 7 6 7 C6 7.66 6 8.32 6 9 C6.66 9 7.32 9 8 9 C8 10.65 8 12.3 8 14 C7.01 14.495 7.01 14.495 6 15 C4.99539469 12.87717331 3.99644398 10.75166979 3 8.625 C2.443125 7.44164062 1.88625 6.25828125 1.3125 5.0390625 C0 2 0 2 0 0 Z " fill="#E5E5E5" transform="translate(272,336)"/>
<path d="M0 0 C1.19625 0.33 2.3925 0.66 3.625 1 C7.15791497 1.89265823 10.34079109 2.18296045 14 2 C13.01 2.33 12.02 2.66 11 3 C10.77390663 5.12364481 10.77390663 5.12364481 12.5 6.625 C12.995 7.07875 13.49 7.5325 14 8 C8.76727367 6.36041242 3.84803364 4.61047965 -1 2 C-0.67 1.34 -0.34 0.68 0 0 Z " fill="#181818" transform="translate(365,352)"/>
<path d="M0 0 C2.8125 0.625 2.8125 0.625 6 2 C7.875 5.125 7.875 5.125 9 8 C10.32 7.34 11.64 6.68 13 6 C13.99 7.485 13.99 7.485 15 9 C12.69 9.66 10.38 10.32 8 11 C6.66375099 9.35653302 5.33107149 7.71016314 4 6.0625 C3.2575 5.14597656 2.515 4.22945313 1.75 3.28515625 C0 1 0 1 0 0 Z " fill="#131313" transform="translate(273,82)"/>
<path d="M0 0 C0 1.65 0 3.3 0 5 C0.66 5.33 1.32 5.66 2 6 C2 7.98 2 9.96 2 12 C-1.28788824 8.88983545 -3.83735988 5.98381075 -6 2 C-1.125 0 -1.125 0 0 0 Z " fill="#E7E7E7" transform="translate(62,332)"/>
<path d="M0 0 C2.97 1.65 5.94 3.3 9 5 C8.01 5.495 8.01 5.495 7 6 C7 6.66 7 7.32 7 8 C4.69 7.34 2.38 6.68 0 6 C-1.125 2.25 -1.125 2.25 0 0 Z " fill="#0E0E0E" transform="translate(389,248)"/>
<path d="M0 0 C2.875 -0.125 2.875 -0.125 6 0 C6.66 0.66 7.32 1.32 8 2 C3.60546875 6.00390625 3.60546875 6.00390625 2 7 C1.01 6.67 0.02 6.34 -1 6 C-0.67 4.02 -0.34 2.04 0 0 Z " fill="#F4F3F4" transform="translate(458,370)"/>
<path d="M0 0 C1.65 1.65 3.3 3.3 5 5 C4.01 6.32 3.02 7.64 2 9 C0.35 8.67 -1.3 8.34 -3 8 C-2.67 6.02 -2.34 4.04 -2 2 C-1.34 2 -0.68 2 0 2 C0 1.34 0 0.68 0 0 Z " fill="#E7E7E7" transform="translate(419,191)"/>
<path d="M0 0 C1.32 1.32 2.64 2.64 4 4 C3.01 5.485 3.01 5.485 2 7 C1.01 7 0.02 7 -1 7 C-2.68236471 7.62599617 -4.3523962 8.28752268 -6 9 C-5.67 8.01 -5.34 7.02 -5 6 C-4.34 6 -3.68 6 -3 6 C-2.690625 5.38125 -2.38125 4.7625 -2.0625 4.125 C-1.375 2.75 -0.6875 1.375 0 0 Z " fill="#070707" transform="translate(476,296)"/>
<path d="M0 0 C6.75 2.75 6.75 2.75 9 5 C5.59437148 5.77842938 2.49234244 6.09978121 -1 6 C-0.67 4.02 -0.34 2.04 0 0 Z " fill="#EDEDED" transform="translate(394,170)"/>
<path d="M0 0 C-0.33 1.65 -0.66 3.3 -1 5 C-2.98 5.66 -4.96 6.32 -7 7 C-7.66 6.34 -8.32 5.68 -9 5 C-3.375 0 -3.375 0 0 0 Z " fill="#151515" transform="translate(216,344)"/>
<path d="M0 0 C1.6720218 3.1632845 2.92221136 6.3821918 4.125 9.75 C4.47820313 10.73484375 4.83140625 11.7196875 5.1953125 12.734375 C5.46085937 13.48203125 5.72640625 14.2296875 6 15 C5.34 15 4.68 15 4 15 C3.54625 14.071875 3.0925 13.14375 2.625 12.1875 C1.0578367 8.96078611 1.0578367 8.96078611 -1 6 C-1.33 5.01 -1.66 4.02 -2 3 C-1.34 2.01 -0.68 1.02 0 0 Z " fill="#1F1F1F" transform="translate(26,275)"/>
<path d="M0 0 C0.99 0.33 1.98 0.66 3 1 C-1.26587874 5.54109672 -6.03612328 9.24735246 -11 13 C-11.33 12.34 -11.66 11.68 -12 11 C-11.46890625 10.54109375 -10.9378125 10.0821875 -10.390625 9.609375 C-6.81675301 6.50506283 -3.28145941 3.41818688 0 0 Z " fill="#E2E2E2" transform="translate(205,347)"/>
<path d="M0 0 C0.598125 0.165 1.19625 0.33 1.8125 0.5 C4.11344336 1.1114124 4.11344336 1.1114124 7 1 C6.67 3.64 6.34 6.28 6 9 C2.91910327 6.22719294 1.31224548 3.93673644 0 0 Z " fill="#161616" transform="translate(129,259)"/>
<path d="M0 0 C0.33 0.99 0.66 1.98 1 3 C1.66 3 2.32 3 3 3 C2.34 4.32 1.68 5.64 1 7 C0.67 6.01 0.34 5.02 0 4 C-0.66 4 -1.32 4 -2 4 C-2.226875 4.639375 -2.45375 5.27875 -2.6875 5.9375 C-4 8 -4 8 -6.625 8.75 C-7.40875 8.8325 -8.1925 8.915 -9 9 C-6 6 -3 3 0 0 Z " fill="#161616" transform="translate(397,384)"/>
<path d="M0 0 C4.75 0.75 4.75 0.75 7 3 C5.02 4.32 3.04 5.64 1 7 C-0.0625 5.1875 -0.0625 5.1875 -1 3 C-0.67 2.01 -0.34 1.02 0 0 Z " fill="#EAEAEA" transform="translate(449,377)"/>
<path d="M0 0 C3.36938898 1.12312966 4.53174093 2.53174093 7 5 C6.01 5.495 6.01 5.495 5 6 C5 6.99 5 7.98 5 9 C-0.875 4.375 -0.875 4.375 -2 1 C-1.34 0.67 -0.68 0.34 0 0 Z " fill="#EDEDED" transform="translate(73,352)"/>
<path d="M0 0 C0.33 1.32 0.66 2.64 1 4 C2.32 4.33 3.64 4.66 5 5 C5 5.33 5 5.66 5 6 C-9.78132118 5.03644647 -9.78132118 5.03644647 -16 4 C-16 3.67 -16 3.34 -16 3 C-10.55306686 2.90311779 -5.36095333 2.87137825 0 4 C0 2.68 0 1.36 0 0 Z " fill="#CBCBCB" transform="translate(394,328)"/>
<path d="M0 0 C4.42761914 1.39153744 6.9556255 3.52071486 10 7 C10 7.66 10 8.32 10 9 C8.68 9.33 7.36 9.66 6 10 C4.99723227 8.52270825 3.99785546 7.04311423 3 5.5625 C2.443125 4.73878906 1.88625 3.91507812 1.3125 3.06640625 C0 1 0 1 0 0 Z " fill="#E4E4E4" transform="translate(48,322)"/>
<path d="M0 0 C1.231394 2.46278801 1.07159196 4.2795055 1 7 C-5.625 9 -5.625 9 -9 9 C-7.37660195 7.29115995 -5.70680947 5.62553283 -4 4 C-3.34 4 -2.68 4 -2 4 C-1.34 2.68 -0.68 1.36 0 0 Z " fill="#D5D5D5" transform="translate(383,296)"/>
<path d="M0 0 C4 4.5 4 4.5 4 9 C0.25 10.125 0.25 10.125 -2 9 C-1.34 8.01 -0.68 7.02 0 6 C0.16699232 2.87478167 0.16699232 2.87478167 0 0 Z " fill="#ECECEC" transform="translate(130,262)"/>
<path d="M0 0 C2.5 1.3125 2.5 1.3125 5 3 C5 6 5 6 3 8.1875 C2.01 9.0846875 2.01 9.0846875 1 10 C0.01 9.67 -0.98 9.34 -2 9 C-1.67 8.01 -1.34 7.02 -1 6 C-0.34 5.67 0.32 5.34 1 5 C0.67 3.35 0.34 1.7 0 0 Z " fill="#E5E5E5" transform="translate(250,62)"/>
<path d="M0 0 C0.66 1.32 1.32 2.64 2 4 C1.01 4 0.02 4 -1 4 C-0.67 4.99 -0.34 5.98 0 7 C-1.65 7 -3.3 7 -5 7 C-5 6.01 -5 5.02 -5 4 C-5.33 3.34 -5.66 2.68 -6 2 C-3 0 -3 0 0 0 Z " fill="#E2E2E2" transform="translate(472,352)"/>
<path d="M0 0 C2 1 2 1 3 3 C4.64646685 4.68662458 6.31183067 6.35511706 8 8 C7.01 9.485 7.01 9.485 6 11 C3.69 8.03 1.38 5.06 -1 2 C-0.67 1.34 -0.34 0.68 0 0 Z " fill="#181818" transform="translate(336,324)"/>
<path d="M0 0 C2 1.25 2 1.25 4 3 C4 4.32 4 5.64 4 7 C3.01 7.66 2.02 8.32 1 9 C-1.0625 6.6875 -1.0625 6.6875 -3 4 C-2.67 3.01 -2.34 2.02 -2 1 C-1.34 0.67 -0.68 0.34 0 0 Z " fill="#101010" transform="translate(427,194)"/>
<path d="M0 0 C0.99 0.33 1.98 0.66 3 1 C2.67 2.98 2.34 4.96 2 7 C1.01 7 0.02 7 -1 7 C-1.66 5.68 -2.32 4.36 -3 3 C-2.01 2.01 -1.02 1.02 0 0 Z " fill="#EBEBEB" transform="translate(69,344)"/>
<path d="M0 0 C0.598125 0.33 1.19625 0.66 1.8125 1 C4.64686471 2.29570958 6.49101916 2.11452069 9.5 1.4375 C12 1 12 1 15 2 C8.72982774 5.97914778 8.72982774 5.97914778 5.8125 6.0625 C3.20583035 4.53445227 1.74450759 2.42984986 0 0 Z " fill="#DBDBDB" transform="translate(352,331)"/>
<path d="M0 0 C0.66 0.33 1.32 0.66 2 1 C-2 7 -2 7 -4 9 C-5.32 8.34 -6.64 7.68 -8 7 C-5.36 4.69 -2.72 2.38 0 0 Z " fill="#171717" transform="translate(168,380)"/>
<path d="M0 0 C0.66 0.33 1.32 0.66 2 1 C1.01 2.32 0.02 3.64 -1 5 C-0.01 5.33 0.98 5.66 2 6 C-1.4019487 8.09350689 -4.05272412 8.17942163 -8 8 C-5.33333333 5.33333333 -2.66666667 2.66666667 0 0 Z " fill="#1B1B1B" transform="translate(469,368)"/>
<path d="M0 0 C0 0.99 0 1.98 0 3 C-0.66 3 -1.32 3 -2 3 C-2.33 3.99 -2.66 4.98 -3 6 C-4.32 4.68 -5.64 3.36 -7 2 C-5.26578631 -1.46842738 -3.40984787 -1.13661596 0 0 Z " fill="#0E0E0E" transform="translate(480,353)"/>
<path d="M0 0 C0.66 0.99 1.32 1.98 2 3 C1.5625 5.0625 1.5625 5.0625 1 7 C1.33 7.66 1.66 8.32 2 9 C1.34 9 0.68 9 0 9 C0 9.66 0 10.32 0 11 C-1.32 10.34 -2.64 9.68 -4 9 C-2.68 6.03 -1.36 3.06 0 0 Z " fill="#E5E5E5" transform="translate(214,308)"/>
<path d="M0 0 C0.66 0 1.32 0 2 0 C2 0.99 2 1.98 2 3 C2.8971875 2.6596875 2.8971875 2.6596875 3.8125 2.3125 C4.8953125 2.1578125 4.8953125 2.1578125 6 2 C7.75 3.4375 7.75 3.4375 9 5 C8.01 5.99 7.02 6.98 6 8 C3.69 6.02 1.38 4.04 -1 2 C-0.67 1.34 -0.34 0.68 0 0 Z " fill="#1B1B1B" transform="translate(405,174)"/>
<path d="M0 0 C2.86724686 0.57344937 3.8614515 0.8614515 6 3 C7.32 3 8.64 3 10 3 C9.67 4.65 9.34 6.3 9 8 C7.68388323 7.04663979 6.37221039 6.08714226 5.0625 5.125 C4.33160156 4.59132813 3.60070312 4.05765625 2.84765625 3.5078125 C1 2 1 2 0 0 Z " fill="#D9D8D9" transform="translate(86,370)"/>
<path d="M0 0 C0.33 0 0.66 0 1 0 C1.19491452 1.45736087 1.38069358 2.91594593 1.5625 4.375 C1.66691406 5.18710937 1.77132813 5.99921875 1.87890625 6.8359375 C2 9 2 9 1 11 C1.66 11.33 2.32 11.66 3 12 C2.34 12.66 1.68 13.32 1 14 C0.46605821 12.5882217 -0.05165104 11.17029756 -0.5625 9.75 C-0.85253906 8.96109375 -1.14257812 8.1721875 -1.44140625 7.359375 C-2.0499718 4.7889303 -1.90655049 3.45365761 -1 1 C-0.67 0.67 -0.34 0.34 0 0 Z " fill="#111111" transform="translate(453,340)"/>
<path d="M0 0 C0.99 0.33 1.98 0.66 3 1 C1.35 2.98 -0.3 4.96 -2 7 C-3.32 6.67 -4.64 6.34 -6 6 C-6 5.34 -6 4.68 -6 4 C-3.1875 1.8125 -3.1875 1.8125 0 0 Z " fill="#E7E7E7" transform="translate(463,305)"/>
<path d="M0 0 C0.66 3.63 1.32 7.26 2 11 C1.34 11 0.68 11 0 11 C0 9.68 0 8.36 0 7 C-0.66 7 -1.32 7 -2 7 C-2.33 7.66 -2.66 8.32 -3 9 C-3 6.36 -3 3.72 -3 1 C-1 0 -1 0 0 0 Z " fill="#131313" transform="translate(220,205)"/>
<path d="M0 0 C0.66 0.33 1.32 0.66 2 1 C-0.97 5.95 -0.97 5.95 -4 11 C-4.66 10.67 -5.32 10.34 -6 10 C-5.67 8.02 -5.34 6.04 -5 4 C-4.01 4 -3.02 4 -2 4 C-2 3.34 -2 2.68 -2 2 C-1.34 2 -0.68 2 0 2 C0 1.34 0 0.68 0 0 Z " fill="#E1E1E1" transform="translate(114,116)"/>
<path d="M0 0 C0.66 0.99 1.32 1.98 2 3 C0.875 4.5 0.875 4.5 -1 6 C-4.1875 6.1875 -4.1875 6.1875 -7 6 C-7 5.01 -7 4.02 -7 3 C-6.21625 2.87625 -5.4325 2.7525 -4.625 2.625 C-1.85942178 2.20882007 -1.85942178 2.20882007 0 0 Z " fill="#111111" transform="translate(429,401)"/>
<path d="M0 0 C0.66 0 1.32 0 2 0 C3.32 2.97 4.64 5.94 6 9 C4.68 9.33 3.36 9.66 2 10 C0.68373308 6.38026598 0 3.90432869 0 0 Z " fill="#161616" transform="translate(274,345)"/>
<path d="M0 0 C2.475 0.99 2.475 0.99 5 2 C2.6875 4.5 2.6875 4.5 0 7 C-0.99 7 -1.98 7 -3 7 C-2 4 -2 4 0 2 C0 1.34 0 0.68 0 0 Z " fill="#EAEAEA" transform="translate(235,320)"/>
<path d="M0 0 C0.99 0 1.98 0 3 0 C3 0.66 3 1.32 3 2 C3.66 2 4.32 2 5 2 C5.33 1.34 5.66 0.68 6 0 C6.99 0 7.98 0 9 0 C8 3 8 3 5 5 C2.66800612 5.07905064 0.33167378 5.08798769 -2 5 C-1.01 4.67 -0.02 4.34 1 4 C0.67 2.68 0.34 1.36 0 0 Z " fill="#E7E7E7" transform="translate(406,251)"/>
<path d="M0 0 C0.66 0 1.32 0 2 0 C2.33 0.33 2.66 0.66 3 1 C5.05396726 0.59070014 5.05396726 0.59070014 7 0 C5.5361389 4.39158329 3.02168662 4.87947433 -1 7 C-1.04254356 5.00045254 -1.04080783 2.99958364 -1 1 C-0.67 0.67 -0.34 0.34 0 0 Z " fill="#E9E9E9" transform="translate(331,208)"/>
<path d="M0 0 C1.65 0 3.3 0 5 0 C4.01 0.99 3.02 1.98 2 3 C4.475 3.99 4.475 3.99 7 5 C5.68 6.32 4.36 7.64 3 9 C0.90250005 6.64031256 0.03094296 5.45383006 -0.1875 2.25 C-0.125625 1.5075 -0.06375 0.765 0 0 Z " fill="#E5E5E5" transform="translate(193,144)"/>
<path d="M0 0 C0.66 0 1.32 0 2 0 C3.06775224 1.96466413 4.06553465 3.96855359 5 6 C4.67 6.66 4.34 7.32 4 8 C2.35 6.68 0.7 5.36 -1 4 C-1.99 4.66 -2.98 5.32 -4 6 C-2.84826645 3.53199953 -1.95216435 1.95216435 0 0 Z " fill="#232323" transform="translate(402,378)"/>
<path d="M0 0 C2.7839183 1.39195915 2.97898997 3.15575779 4 6 C2.68 6 1.36 6 0 6 C-0.66 4.68 -1.32 3.36 -2 2 C-1.34 1.34 -0.68 0.68 0 0 Z " fill="#0B0B0B" transform="translate(172,377)"/>
<path d="M0 0 C3.3 1.65 6.6 3.3 10 5 C10 5.33 10 5.66 10 6 C3.539801 6.36567164 3.539801 6.36567164 1.0625 4.6875 C0 3 0 3 0 0 Z " fill="#E1E1E1" transform="translate(360,351)"/>
<path d="M0 0 C0.33 1.32 0.66 2.64 1 4 C0.34 4 -0.32 4 -1 4 C-0.67 4.99 -0.34 5.98 0 7 C-1.65 7.33 -3.3 7.66 -5 8 C-5.33 7.01 -5.66 6.02 -6 5 C-4.02 3.35 -2.04 1.7 0 0 Z " fill="#131313" transform="translate(223,336)"/>
<path d="M0 0 C2.15377564 2.62198774 3.40072174 4.64404172 4 8 C2.35 8.33 0.7 8.66 -1 9 C-2.05566977 5.83299069 -1.97926374 5.03571759 -1 2 C-0.67 1.34 -0.34 0.68 0 0 Z " fill="#EAEAEA" transform="translate(323,305)"/>
<path d="M0 0 C2.31 1.98 4.62 3.96 7 6 C3 7 3 7 0.75 6.0625 C0.1725 5.711875 -0.405 5.36125 -1 5 C-0.67 3.35 -0.34 1.7 0 0 Z " fill="#0E0E0E" transform="translate(382,241)"/>
<path d="M0 0 C1.32 1.32 2.64 2.64 4 4 C2 6 2 6 -1.125 6.125 C-2.548125 6.063125 -2.548125 6.063125 -4 6 C-2.84826645 3.53199953 -1.95216435 1.95216435 0 0 Z " fill="#191919" transform="translate(190,145)"/>
<path d="M0 0 C2.125 0.9375 2.125 0.9375 4 2 C3.01 3.32 2.02 4.64 1 6 C-0.65 5.67 -2.3 5.34 -4 5 C-2.25 1.125 -2.25 1.125 0 0 Z " fill="#F4F4F4" transform="translate(255,67)"/>
<path d="M0 0 C0.99 1.32 1.98 2.64 3 4 C2.34 5.32 1.68 6.64 1 8 C-0.32 7.34 -1.64 6.68 -3 6 C-2.01 4.02 -1.02 2.04 0 0 Z " fill="#1A1A1A" transform="translate(322,223)"/>
<path d="M0 0 C2.475 0.99 2.475 0.99 5 2 C5 3.65 5 5.3 5 7 C2.36 5.68 -0.28 4.36 -3 3 C-2.01 2.01 -1.02 1.02 0 0 Z " fill="#E5E5E5" transform="translate(355,208)"/>
<path d="M0 0 C0.33 0.66 0.66 1.32 1 2 C1.66 2.33 2.32 2.66 3 3 C-0.42789254 5.74231403 -1.64589854 6 -6 6 C-4 4 -2 2 0 0 Z " fill="#E4E4E4" transform="translate(325,191)"/>
<path d="M0 0 C0.66 0.33 1.32 0.66 2 1 C1.979375 1.78375 1.95875 2.5675 1.9375 3.375 C1.81315937 5.98114961 1.81315937 5.98114961 3 8 C1.35 8.33 -0.3 8.66 -2 9 C-2.33 8.34 -2.66 7.68 -3 7 C-2.06421005 4.64018187 -1.06652192 2.30368736 0 0 Z " fill="#E1E1E1" transform="translate(29,162)"/>
<path d="M0 0 C2.97 1.98 2.97 1.98 6 4 C5.01 4.33 4.02 4.66 3 5 C3.33 5.99 3.66 6.98 4 8 C3.01 8 2.02 8 1 8 C0.67 5.36 0.34 2.72 0 0 Z " fill="#111111" transform="translate(416,399)"/>
<path d="M0 0 C0.66 0.33 1.32 0.66 2 1 C3.70702735 1.06996014 5.41668003 1.08440154 7.125 1.0625 C8.03507812 1.05347656 8.94515625 1.04445313 9.8828125 1.03515625 C10.93082031 1.01775391 10.93082031 1.01775391 12 1 C11 3 11 3 9.25 3.6875 C6.60760177 4.05449975 4.57327078 3.64331769 2 3 C1.67 3.66 1.34 4.32 1 5 C0.34 4.67 -0.32 4.34 -1 4 C-0.67 2.68 -0.34 1.36 0 0 Z " fill="#E2E2E2" transform="translate(454,354)"/>
<path d="M0 0 C0.99 0.99 1.98 1.98 3 3 C2.34 4.32 1.68 5.64 1 7 C-0.65 5.35 -2.3 3.7 -4 2 C-3.34 1.67 -2.68 1.34 -2 1 C-1.34 1.33 -0.68 1.66 0 2 C0 1.34 0 0.68 0 0 Z " fill="#EFEFEF" transform="translate(381,232)"/>
<path d="M0 0 C0.33 0.99 0.66 1.98 1 3 C-3.455 4.485 -3.455 4.485 -8 6 C-8 4.68 -8 3.36 -8 2 C-7.05125 1.855625 -6.1025 1.71125 -5.125 1.5625 C-2.1065506 1.17064601 -2.1065506 1.17064601 0 0 Z " fill="#161616" transform="translate(361,168)"/>
<path d="M0 0 C1.04449911 3.13349732 0.93423645 3.98968256 0 7 C-1.32 7 -2.64 7 -4 7 C-4.66 6.34 -5.32 5.68 -6 5 C-4.02 3.35 -2.04 1.7 0 0 Z " fill="#E9E9E9" transform="translate(87,104)"/>
<path d="M0 0 C0.33 1.32 0.66 2.64 1 4 C1.99 4 2.98 4 4 4 C3.34 5.32 2.68 6.64 2 8 C0.35 7.01 -1.3 6.02 -3 5 C-2.01 3.35 -1.02 1.7 0 0 Z " fill="#E0E0E0" transform="translate(124,392)"/>
<path d="M0 0 C0.66 0.99 1.32 1.98 2 3 C2.680625 3.165 3.36125 3.33 4.0625 3.5 C4.701875 3.665 5.34125 3.83 6 4 C6.33 4.99 6.66 5.98 7 7 C6.34 7.66 5.68 8.32 5 9 C3.02 6.69 1.04 4.38 -1 2 C-0.67 1.34 -0.34 0.68 0 0 Z " fill="#D9D9D9" transform="translate(80,361)"/>
<path d="M0 0 C0.33 0.99 0.66 1.98 1 3 C0.360625 3.103125 -0.27875 3.20625 -0.9375 3.3125 C-1.618125 3.539375 -2.29875 3.76625 -3 4 C-3.33 4.99 -3.66 5.98 -4 7 C-4.66 6.67 -5.32 6.34 -6 6 C-5.6875 4.125 -5.6875 4.125 -5 2 C-2 0 -2 0 0 0 Z " fill="#0F0F0F" transform="translate(422,249)"/>
<path d="M0 0 C0.66 0.33 1.32 0.66 2 1 C0.75023244 4.65316671 0.32901247 5.78065836 -3 8 C-3.33 6.35 -3.66 4.7 -4 3 C-2.68 2.01 -1.36 1.02 0 0 Z " fill="#191919" transform="translate(447,232)"/>
<path d="M0 0 C0.66 0.66 1.32 1.32 2 2 C1.195625 2.763125 0.39125 3.52625 -0.4375 4.3125 C-3.16799024 6.79430898 -3.16799024 6.79430898 -4 10 C-4.99 10 -5.98 10 -7 10 C-5.33248852 6.05860922 -2.77289351 3.2107188 0 0 Z " fill="#E0E0E0" transform="translate(44,141)"/>
<path d="M0 0 C0 1.32 0 2.64 0 4 C-3.3 3.01 -6.6 2.02 -10 1 C-10 0.67 -10 0.34 -10 0 C-6.30458414 -0.95024979 -3.69541586 -0.95024979 0 0 Z " fill="#DFDFDF" transform="translate(160,116)"/>
<path d="M0 0 C1.65 0.33 3.3 0.66 5 1 C5.33 1.99 5.66 2.98 6 4 C1.25 5.125 1.25 5.125 -1 4 C-0.67 2.68 -0.34 1.36 0 0 Z " fill="#EFEFEF" transform="translate(282,99)"/>
<path d="M0 0 C3.875 1.75 3.875 1.75 5 4 C4.67 4.66 4.34 5.32 4 6 C2.68 6 1.36 6 0 6 C0 4.02 0 2.04 0 0 Z " fill="#E8E8E8" transform="translate(270,81)"/>
<path d="M0 0 C4.55384615 -0.36923077 4.55384615 -0.36923077 6.8125 1.5 C7.204375 1.995 7.59625 2.49 8 3 C7.67 3.99 7.34 4.98 7 6 C5.83054208 5.19152271 4.66449539 4.37810888 3.5 3.5625 C2.8503125 3.11003906 2.200625 2.65757812 1.53125 2.19140625 C1.0259375 1.79824219 0.520625 1.40507812 0 1 C0 0.67 0 0.34 0 0 Z " fill="#DDDDDD" transform="translate(104,385)"/>
<path d="M0 0 C0.33 1.32 0.66 2.64 1 4 C1.66 4 2.32 4 3 4 C3.33 2.68 3.66 1.36 4 0 C4 2.31 4 4.62 4 7 C0.83884224 5.63016497 0.0072908 5.0109362 -2 2 C-1.34 1.34 -0.68 0.68 0 0 Z " fill="#F0F0F0" transform="translate(300,376)"/>
<path d="M0 0 C2.64752004 2.57784846 4.94432065 4.91648098 7 8 C6.01 8.33 5.02 8.66 4 9 C2 8 2 8 1.3671875 6.15234375 C1.20476562 5.42144531 1.04234375 4.69054687 0.875 3.9375 C0.70742187 3.20402344 0.53984375 2.47054688 0.3671875 1.71484375 C0.24601562 1.14894531 0.12484375 0.58304687 0 0 Z " fill="#1B1B1B" transform="translate(78,362)"/>
<path d="M0 0 C0.99 0 1.98 0 3 0 C3 0.66 3 1.32 3 2 C3.66 2.33 4.32 2.66 5 3 C2.525 4.485 2.525 4.485 0 6 C-0.66 5.01 -1.32 4.02 -2 3 C-1.34 2.01 -0.68 1.02 0 0 Z " fill="#EEEEEE" transform="translate(466,365)"/>
<path d="M0 0 C2.67927341 4.01891012 2.15601248 6.24161923 2 11 C1.34 11 0.68 11 0 11 C-0.19406478 9.35492782 -0.38007935 7.70890406 -0.5625 6.0625 C-0.66691406 5.14597656 -0.77132813 4.22945313 -0.87890625 3.28515625 C-0.91886719 2.53105469 -0.95882813 1.77695312 -1 1 C-0.67 0.67 -0.34 0.34 0 0 Z " fill="#E8E8E8" transform="translate(265,304)"/>
<path d="M0 0 C0.99 0.33 1.98 0.66 3 1 C3 1.99 3 2.98 3 4 C3.66 4.33 4.32 4.66 5 5 C5 6.98 5 8.96 5 11 C2.03947516 7.63576723 1.07710178 4.30840713 0 0 Z " fill="#151515" transform="translate(117,235)"/>
<path d="M0 0 C0.66 0 1.32 0 2 0 C3 3 3 3 1.5625 6.1875 C0.7890625 7.5796875 0.7890625 7.5796875 0 9 C-2 6 -2 6 -1.6875 3.375 C-1 1 -1 1 0 0 Z " fill="#141414" transform="translate(308,135)"/>
<path d="M0 0 C0.99 0.33 1.98 0.66 3 1 C-1.75 5.875 -1.75 5.875 -4 7 C-4.66 6.34 -5.32 5.68 -6 5 C-1.60546875 0.99609375 -1.60546875 0.99609375 0 0 Z " fill="#1B1B1B" transform="translate(121,73)"/>
<path d="M0 0 C1.98 0 3.96 0 6 0 C1.25 4.875 1.25 4.875 -1 6 C-0.67 4.02 -0.34 2.04 0 0 Z " fill="#E7E7E7" transform="translate(177,368)"/>
<path d="M0 0 C0.99 0.33 1.98 0.66 3 1 C0.16569547 4.2542015 -1.68607774 5.5206753 -6 6 C-4 4 -2 2 0 0 Z " fill="#202020" transform="translate(189,363)"/>
<path d="M0 0 C0.33 0.66 0.66 1.32 1 2 C1.66 2.33 2.32 2.66 3 3 C3 6 3 6 1.5 7.6875 C1.005 8.120625 0.51 8.55375 0 9 C-1.125 2.25 -1.125 2.25 0 0 Z " fill="#E5E5E5" transform="translate(241,313)"/>
<path d="M0 0 C0.33 0 0.66 0 1 0 C1.74926071 3.66305234 2.2380014 6.42355152 1 10 C0.34 10 -0.32 10 -1 10 C-1.33 10.99 -1.66 11.98 -2 13 C-1.48041715 8.62065881 -0.94324258 4.31196609 0 0 Z " fill="#DBDBDB" transform="translate(222,280)"/>
<path d="M0 0 C4.875 2.75 4.875 2.75 6 5 C5.34 5 4.68 5 4 5 C4 5.66 4 6.32 4 7 C2.68 6.34 1.36 5.68 0 5 C0 3.33333333 0 1.66666667 0 0 Z " fill="#1D1D1D" transform="translate(172,128)"/>
<path d="M0 0 C1.32 0.66 2.64 1.32 4 2 C3.21625 2.28875 2.4325 2.5775 1.625 2.875 C-1.09671632 3.84912254 -1.09671632 3.84912254 -3 6 C-3.99 5.67 -4.98 5.34 -6 5 C-4.02 3.35 -2.04 1.7 0 0 Z " fill="#DFDFDF" transform="translate(62,124)"/>
<path d="M0 0 C0 1.66666667 0 3.33333333 0 5 C-1.65 5.66 -3.3 6.32 -5 7 C-5.33 6.01 -5.66 5.02 -6 4 C-5.195625 3.525625 -4.39125 3.05125 -3.5625 2.5625 C-1.15246512 1.23099846 -1.15246512 1.23099846 0 0 Z " fill="#1E1E1E" transform="translate(143,400)"/>
<path d="M0 0 C0.99 0.33 1.98 0.66 3 1 C1.6875 3.5 1.6875 3.5 0 6 C-0.99 6 -1.98 6 -3 6 C-2.01 4.02 -1.02 2.04 0 0 Z " fill="#E0E0E0" transform="translate(396,380)"/>
<path d="M0 0 C0.625 1.8125 0.625 1.8125 1 4 C0.01 5.485 0.01 5.485 -1 7 C-2.32 6.34 -3.64 5.68 -5 5 C-3.35 3.35 -1.7 1.7 0 0 Z " fill="#CFCFCF" transform="translate(367,312)"/>
<path d="M0 0 C2.25 0.25 2.25 0.25 4 1 C2.25 3.0625 2.25 3.0625 0 5 C-2.25 4.75 -2.25 4.75 -4 4 C-2.25 1.9375 -2.25 1.9375 0 0 Z " fill="#D4D4D4" transform="translate(391,288)"/>
<path d="M0 0 C0.66 0.66 1.32 1.32 2 2 C-0.31 3.32 -2.62 4.64 -5 6 C-5.33 5.34 -5.66 4.68 -6 4 C-5.34 3.01 -4.68 2.02 -4 1 C-2.68 1.33 -1.36 1.66 0 2 C0 1.34 0 0.68 0 0 Z " fill="#1C1C1C" transform="translate(342,177)"/>
<path d="M0 0 C0.66 0.66 1.32 1.32 2 2 C0.02 3.32 -1.96 4.64 -4 6 C-4.99 5.01 -5.98 4.02 -7 3 C-4.69 2.01 -2.38 1.02 0 0 Z " fill="#161616" transform="translate(63,121)"/>
<path d="M0 0 C1.98 0.99 3.96 1.98 6 3 C5.01 3.99 4.02 4.98 3 6 C2.01 5.67 1.02 5.34 0 5 C-0.75 3 -0.75 3 -1 1 C-0.67 0.67 -0.34 0.34 0 0 Z " fill="#121212" transform="translate(97,88)"/>
<path d="M0 0 C4.75 0.875 4.75 0.875 7 2 C6.34 3.32 5.68 4.64 5 6 C3.35 4.02 1.7 2.04 0 0 Z " fill="#191919" transform="translate(265,74)"/>
<path d="M0 0 C0.66 0.66 1.32 1.32 2 2 C-2.75 6 -2.75 6 -5 6 C-3.63016497 2.83884224 -3.0109362 2.0072908 0 0 Z " fill="#E3E3E3" transform="translate(134,66)"/>
<path d="M0 0 C0.66 0.33 1.32 0.66 2 1 C1.67 2.65 1.34 4.3 1 6 C-0.98 5.34 -2.96 4.68 -5 4 C-3.35 2.68 -1.7 1.36 0 0 Z " fill="#101010" transform="translate(221,40)"/>
<path d="M0 0 C1.32 0.66 2.64 1.32 4 2 C4 2.99 4 3.98 4 5 C2.35 5 0.7 5 -1 5 C-1 2 -1 2 0 0 Z " fill="#111111" transform="translate(318,395)"/>
<path d="M0 0 C0.66 0.66 1.32 1.32 2 2 C0.35 3.32 -1.3 4.64 -3 6 C-3.66 5.67 -4.32 5.34 -5 5 C-5 3.68 -5 2.36 -5 1 C-4.34 1 -3.68 1 -3 1 C-3 1.66 -3 2.32 -3 3 C-2.01 2.01 -1.02 1.02 0 0 Z " fill="#E1E1E1" transform="translate(150,392)"/>
<path d="M0 0 C-1.13474948 3.40424844 -1.96811304 4.21653709 -5 6 C-5.99 5.67 -6.98 5.34 -8 5 C-2.25 0 -2.25 0 0 0 Z " fill="#272727" transform="translate(454,382)"/>
<path d="M0 0 C0.66 0 1.32 0 2 0 C2.33 0.99 2.66 1.98 3 3 C2 4 2 4 -0.5625 4.0625 C-1.7690625 4.0315625 -1.7690625 4.0315625 -3 4 C-3.33 3.01 -3.66 2.02 -4 1 C-2.68 1.33 -1.36 1.66 0 2 C0 1.34 0 0.68 0 0 Z " fill="#F7F6F7" transform="translate(85,361)"/>
<path d="M0 0 C2.125 0.9375 2.125 0.9375 4 2 C3.01 3.485 3.01 3.485 2 5 C0.68 4.34 -0.64 3.68 -2 3 C-2 2.34 -2 1.68 -2 1 C-1.34 0.67 -0.68 0.34 0 0 Z " fill="#111111" transform="translate(208,312)"/>
<path d="M0 0 C1.7074998 1.28062485 3.37373596 2.61767557 5 4 C5 4.66 5 5.32 5 6 C3.35 6 1.7 6 0 6 C0 4.02 0 2.04 0 0 Z " fill="#202020" transform="translate(377,235)"/>
<path d="M0 0 C0.66 0 1.32 0 2 0 C2 0.66 2 1.32 2 2 C2.99 2.33 3.98 2.66 5 3 C5.6875 5.0625 5.6875 5.0625 6 7 C5.01 7.495 5.01 7.495 4 8 C0 2.25 0 2.25 0 0 Z " fill="#1A1A1A" transform="translate(457,214)"/>
<path d="M0 0 C0.66 0.66 1.32 1.32 2 2 C-1.96 1.67 -5.92 1.34 -10 1 C-10 0.67 -10 0.34 -10 0 C-6.31938873 -0.9464429 -3.66134991 -1.08850943 0 0 Z " fill="#E6E6E6" transform="translate(130,110)"/>
<path d="M0 0 C2.475 0.99 2.475 0.99 5 2 C5 3.32 5 4.64 5 6 C3.35 5.67 1.7 5.34 0 5 C0 3.35 0 1.7 0 0 Z " fill="#E5E5E5" transform="translate(231,50)"/>
<path d="M0 0 C0.86625 0.3403125 0.86625 0.3403125 1.75 0.6875 C0.1 2.0075 -1.55 3.3275 -3.25 4.6875 C-4.24 4.0275 -5.23 3.3675 -6.25 2.6875 C-2.80384615 -0.38942308 -2.80384615 -0.38942308 0 0 Z " fill="#D4D4D4" transform="translate(428.25,400.3125)"/>
<path d="M0 0 C1.32 0.99 2.64 1.98 4 3 C1.6875 3.625 1.6875 3.625 -1 4 C-1.99 3.34 -2.98 2.68 -4 2 C-2.68 1.34 -1.36 0.68 0 0 Z " fill="#DEDEDE" transform="translate(137,400)"/>
<path d="M0 0 C0.99 0.66 1.98 1.32 3 2 C0.69 3.65 -1.62 5.3 -4 7 C-4 6.01 -4 5.02 -4 4 C-3.34 4 -2.68 4 -2 4 C-1.34 2.68 -0.68 1.36 0 0 Z " fill="#D9D9D9" transform="translate(463,370)"/>
<path d="M0 0 C-1.375 2 -1.375 2 -3 4 C-3.66 4 -4.32 4 -5 4 C-5.66 2.68 -6.32 1.36 -7 0 C-2.25 -1.125 -2.25 -1.125 0 0 Z " fill="#F2F2F2" transform="translate(95,369)"/>
<path d="M0 0 C0.66 0 1.32 0 2 0 C2.33 1.32 2.66 2.64 3 4 C1 5 1 5 -2.125 4.0625 C-3.07375 3.711875 -4.0225 3.36125 -5 3 C-4.360625 2.690625 -3.72125 2.38125 -3.0625 2.0625 C-1.06389179 1.1654837 -1.06389179 1.1654837 0 0 Z " fill="#EBEBEB" transform="translate(473,360)"/>
<path d="M0 0 C3.625 0.375 3.625 0.375 7 1 C6.34 1.66 5.68 2.32 5 3 C1.375 2.625 1.375 2.625 -2 2 C-1.34 1.34 -0.68 0.68 0 0 Z " fill="#EFEFEF" transform="translate(367,357)"/>
<path d="M0 0 C0.33 0.66 0.66 1.32 1 2 C3.02463255 2.65213292 3.02463255 2.65213292 5 3 C2.69 3 0.38 3 -2 3 C-2.33 3.66 -2.66 4.32 -3 5 C-3.66 4.01 -4.32 3.02 -5 2 C-3.35 1.34 -1.7 0.68 0 0 Z " fill="#121212" transform="translate(359,344)"/>
<path d="M0 0 C1.32 0 2.64 0 4 0 C4 0.99 4 1.98 4 3 C3.01 3.495 3.01 3.495 2 4 C1.34 4.99 0.68 5.98 0 7 C0 4.69 0 2.38 0 0 Z " fill="#232323" transform="translate(449,324)"/>
<path d="M0 0 C1.32 1.65 2.64 3.3 4 5 C3.67 5.66 3.34 6.32 3 7 C2.01 7 1.02 7 0 7 C0 4.69 0 2.38 0 0 Z " fill="#1C1C1C" transform="translate(43,314)"/>
<path d="M0 0 C0.99 0.33 1.98 0.66 3 1 C2.34 2.65 1.68 4.3 1 6 C0.01 5.01 -0.98 4.02 -2 3 C-1.34 2.01 -0.68 1.02 0 0 Z " fill="#E6E5E6" transform="translate(373,306)"/>
<path d="M0 0 C1.76462683 3.08809695 2 4.23312136 2 8 C1.34 8 0.68 8 0 8 C-1 6 -1 6 -2 3 C-1.34 2.01 -0.68 1.02 0 0 Z " fill="#101010" transform="translate(26,275)"/>
<path d="M0 0 C0.99 0.99 1.98 1.98 3 3 C2.01 3.99 1.02 4.98 0 6 C-0.66 5.67 -1.32 5.34 -2 5 C-1.34 3.35 -0.68 1.7 0 0 Z " fill="#1C1C1C" transform="translate(370,226)"/>
<path d="M0 0 C0.91058531 3.07322544 1.08886184 5.80097361 1 9 C-0.32 7.35 -1.64 5.7 -3 4 C-2.01 2.68 -1.02 1.36 0 0 Z " fill="#E6E6E6" transform="translate(201,152)"/>
<path d="M0 0 C0.33 0 0.66 0 1 0 C1.33 2.31 1.66 4.62 2 7 C0.68 7.33 -0.64 7.66 -2 8 C-1.47731534 5.23723823 -0.89130413 2.6739124 0 0 Z " fill="#1C1C1C" transform="translate(108,129)"/>
<path d="M0 0 C1.98 0.66 3.96 1.32 6 2 C5.34 3.65 4.68 5.3 4 7 C3.34 6.67 2.68 6.34 2 6 C2.33 4.68 2.66 3.36 3 2 C2.01 2 1.02 2 0 2 C0 1.34 0 0.68 0 0 Z " fill="#141414" transform="translate(158,120)"/>
</svg>
